<svg width="500" height="500" viewBox="0 0 500 500" fill="none" xmlns="http://www.w3.org/2000/svg">
<rect width="500" height="500" rx="70" fill="url(#paint0_linear_104_42)"/>
<path d="M132.949 179.311H188.813C199.826 179.311 208.708 180.805 215.459 183.793C222.266 186.781 227.882 191.07 232.31 196.659C236.737 202.248 239.946 208.751 241.938 216.166C243.931 223.581 244.927 231.439 244.927 239.74C244.927 252.745 243.433 262.844 240.444 270.038C237.511 277.177 233.416 283.181 228.159 288.051C222.902 292.865 217.257 296.075 211.226 297.68C202.98 299.893 195.509 301 188.813 301H132.949V179.311ZM170.552 206.869V273.358H179.766C187.624 273.358 193.213 272.501 196.533 270.785C199.854 269.014 202.454 265.971 204.336 261.654C206.217 257.283 207.158 250.227 207.158 240.487C207.158 227.593 205.055 218.767 200.85 214.008C196.644 209.249 189.671 206.869 179.932 206.869H170.552Z" fill="black"/>
<path d="M243.949 301V179.311H306.62C318.241 179.311 327.123 180.307 333.266 182.299C339.408 184.291 344.361 187.999 348.124 193.422C351.887 198.79 353.769 205.347 353.769 213.095C353.769 219.846 352.33 225.684 349.452 230.609C346.575 235.479 342.618 239.436 337.582 242.479C334.372 244.416 329.973 246.021 324.384 247.294C328.866 248.788 332.131 250.282 334.179 251.776C335.562 252.772 337.554 254.903 340.155 258.168C342.812 261.433 344.582 263.951 345.468 265.722L363.646 301H321.146L301.059 263.812C298.513 258.998 296.244 255.871 294.252 254.433C291.54 252.551 288.469 251.61 285.038 251.61H281.718V301H243.949ZM281.718 228.617H297.572C299.288 228.617 302.608 228.064 307.533 226.957C310.023 226.459 312.043 225.186 313.593 223.139C315.198 221.091 316 218.739 316 216.083C316 212.154 314.755 209.138 312.265 207.035C309.774 204.932 305.098 203.881 298.236 203.881H281.718V228.617Z" fill="black"/>
<defs>
<linearGradient id="paint0_linear_104_42" x1="-132.5" y1="250" x2="595" y2="250" gradientUnits="userSpaceOnUse">
<stop stop-color="#FDEFF9"/>
<stop offset="0.484375" stop-color="#EC38BC"/>
<stop offset="0.807292" stop-color="#AD36FF"/>
<stop offset="1" stop-color="#4939D7"/>
</linearGradient>
</defs>
</svg>
