<svg width="4170" height="900" viewBox="0 0 4170 900" fill="none" xmlns="http://www.w3.org/2000/svg">
<rect width="900" height="900" rx="100" fill="white"/>
<rect x="226" y="222" width="540" height="540" rx="85" fill="#0057FF" stroke="#0057FF" stroke-width="30"/>
<rect x="141" y="145" width="540" height="540" rx="85" fill="white" stroke="#0057FF" stroke-width="30"/>
<path d="M433.8 268.4L454.6 268.8C462.067 270.133 469.133 272.4 475.8 275.6C482.733 278.8 488.733 283.6 493.8 290C494.867 291.067 495.533 291.733 495.8 292L507.4 280.4C515.133 272.667 519.133 268.667 519.4 268.4C520.733 267.333 523.4 267.333 527.4 268.4C528.2 269.2 528.733 269.867 529 270.4C529.267 271.467 525.533 287.467 517.8 318.4C509.8 349.867 505.533 365.867 505 366.4L503.8 367.6H496.6C490.467 367.6 487.133 366.8 486.6 365.2C486.333 364.4 486.467 362.667 487 360C489.4 341.333 487.933 326 482.6 314C476.2 300.667 465 292.667 449 290C442.6 288.933 435.533 288.933 427.8 290C417.667 292.133 408.2 297.467 399.4 306C384.2 320.933 378.067 336.8 381 353.6C382.6 365.067 388.733 372.933 399.4 377.2L427 384.8C437.4 387.467 447.267 390.133 456.6 392.8C463.533 395.733 469.933 400.133 475.8 406C480.067 410.267 483.533 415.2 486.2 420.8C493.667 436.533 495 454 490.2 473.2C484.067 499.333 469.667 521.2 447 538.8C445.133 540.133 443.267 541.467 441.4 542.8C432.067 548.4 424.2 552.267 417.8 554.4C407.933 557.6 397.8 559.067 387.4 558.8C370.867 558 357 554.8 345.8 549.2C340.467 546.8 335 542.933 329.4 537.6L325.8 534C325.533 534 321.667 538 314.2 546L301.8 558.4L297.8 558.8H297.4C295.267 558.8 293.8 558.4 293 557.6C292.2 556.8 291.8 556.133 291.8 555.6C291.8 554.8 299.533 523.467 315 461.6C315.533 460 318.867 459.2 325 459.2H332.2L333.4 460.4C334.467 461.467 334.6 464.267 333.8 468.8C333.8 469.333 333.667 470 333.4 470.8C331.533 480.667 331.267 488.933 332.6 495.6C337.933 521.467 357.533 535.067 391.4 536.4C398.333 536.4 404.2 535.6 409 534C423.933 529.2 435.933 518.8 445 502.8C448.733 496.667 451.267 490.267 452.6 483.6C455.8 467.6 453.267 454.8 445 445.2C442.333 442.533 438.867 440.267 434.6 438.4L407 430.8C386.733 425.467 374.333 421.6 369.8 419.2C351.667 408.8 342.2 392.267 341.4 369.6C340.867 360 342.333 350.133 345.8 340C354.067 314.933 370.2 295.467 394.2 281.6C397.4 279.733 400.733 278 404.2 276.4C413.267 272.133 421.667 269.6 429.4 268.8C430.467 268.533 431.933 268.4 433.8 268.4Z" fill="#0057FF"/>
<path d="M433.8 268.4L434.377 238.406L434.088 238.4H433.8V268.4ZM454.6 268.8L459.874 239.267L457.543 238.851L455.177 238.806L454.6 268.8ZM475.8 275.6L462.818 302.646L463.022 302.744L463.228 302.839L475.8 275.6ZM493.8 290L470.279 308.621L471.358 309.984L472.587 311.213L493.8 290ZM495.8 292L474.587 313.213L495.8 334.426L517.013 313.213L495.8 292ZM507.4 280.4L528.613 301.613L507.4 280.4ZM519.4 268.4L500.659 244.974L499.362 246.012L498.187 247.187L519.4 268.4ZM527.4 268.4L548.613 247.187L542.916 241.489L535.13 239.413L527.4 268.4ZM529 270.4L558.104 263.124L557.306 259.929L555.833 256.984L529 270.4ZM517.8 318.4L546.875 325.792L546.89 325.734L546.904 325.676L517.8 318.4ZM505 366.4L526.213 387.613L526.213 387.613L505 366.4ZM503.8 367.6V397.6H516.226L525.013 388.813L503.8 367.6ZM486.6 365.2L458.139 374.687L458.139 374.687L486.6 365.2ZM487 360L516.417 365.883L516.622 364.86L516.755 363.826L487 360ZM482.6 314L510.014 301.816L509.836 301.414L509.646 301.018L482.6 314ZM449 290L444.068 319.592L444.068 319.592L449 290ZM427.8 290L423.701 260.281L422.654 260.426L421.62 260.643L427.8 290ZM399.4 306L378.516 284.463L378.445 284.531L378.375 284.6L399.4 306ZM381 353.6L410.712 349.454L410.641 348.946L410.553 348.44L381 353.6ZM399.4 377.2L388.258 405.054L389.817 405.678L391.436 406.123L399.4 377.2ZM427 384.8L419.036 413.723L419.292 413.794L419.549 413.86L427 384.8ZM456.6 392.8L468.289 365.171L466.603 364.457L464.842 363.954L456.6 392.8ZM475.8 406L497.013 384.787L497.013 384.787L475.8 406ZM486.2 420.8L513.303 407.938L513.294 407.92L513.286 407.902L486.2 420.8ZM490.2 473.2L461.096 465.924L461.043 466.134L460.994 466.345L490.2 473.2ZM447 538.8L464.437 563.212L464.925 562.863L465.399 562.496L447 538.8ZM441.4 542.8L456.835 568.525L457.862 567.908L458.837 567.212L441.4 542.8ZM417.8 554.4L427.055 582.937L427.171 582.899L427.287 582.861L417.8 554.4ZM387.4 558.8L385.95 588.765L386.29 588.781L386.631 588.79L387.4 558.8ZM345.8 549.2L359.216 522.367L358.669 522.093L358.111 521.842L345.8 549.2ZM329.4 537.6L308.187 558.813L308.445 559.072L308.71 559.324L329.4 537.6ZM325.8 534L347.013 512.787L338.226 504H325.8V534ZM314.2 546L335.413 567.213L335.779 566.848L336.132 566.47L314.2 546ZM301.8 558.4L304.785 588.251L315.441 587.186L323.013 579.613L301.8 558.4ZM297.8 558.8V588.8H299.296L300.785 588.651L297.8 558.8ZM293 557.6L314.213 536.387L314.213 536.387L293 557.6ZM315 461.6L286.54 452.113L286.175 453.206L285.896 454.324L315 461.6ZM332.2 459.2L353.413 437.987L344.626 429.2H332.2V459.2ZM333.4 460.4L312.187 481.613L312.187 481.613L333.4 460.4ZM333.8 468.8L304.256 463.586L303.8 466.173V468.8H333.8ZM333.4 470.8L304.94 461.313L304.299 463.234L303.923 465.223L333.4 470.8ZM332.6 495.6L303.183 501.483L303.2 501.571L303.218 501.658L332.6 495.6ZM391.4 536.4L390.22 566.377L390.81 566.4H391.4V536.4ZM409 534L399.82 505.439L399.666 505.488L399.513 505.539L409 534ZM445 502.8L419.374 487.202L419.13 487.602L418.899 488.01L445 502.8ZM452.6 483.6L423.183 477.717L423.183 477.717L452.6 483.6ZM445 445.2L467.733 425.624L467.004 424.777L466.213 423.987L445 445.2ZM434.6 438.4L446.625 410.915L444.646 410.05L442.564 409.477L434.6 438.4ZM407 430.8L414.964 401.877L414.8 401.831L414.635 401.788L407 430.8ZM369.8 419.2L354.875 445.224L355.315 445.476L355.763 445.714L369.8 419.2ZM341.4 369.6L371.381 368.542L371.371 368.239L371.354 367.936L341.4 369.6ZM345.8 340L374.185 349.711L374.239 349.554L374.291 349.396L345.8 340ZM394.2 281.6L409.208 307.576L409.262 307.545L409.316 307.513L394.2 281.6ZM404.2 276.4L416.772 303.639L416.873 303.592L416.974 303.545L404.2 276.4ZM429.4 268.8L432.487 298.641L434.608 298.421L436.676 297.904L429.4 268.8ZM433.223 298.394L454.023 298.794L455.177 238.806L434.377 238.406L433.223 298.394ZM449.326 298.333C454.192 299.202 458.659 300.649 462.818 302.646L488.782 248.554C479.608 244.151 469.941 241.065 459.874 239.267L449.326 298.333ZM463.228 302.839C465.594 303.931 467.928 305.652 470.279 308.621L517.321 271.379C509.538 261.548 499.873 253.669 488.372 248.361L463.228 302.839ZM472.587 311.213C472.589 311.215 472.591 311.217 472.593 311.219C472.595 311.222 472.597 311.224 472.599 311.226C472.601 311.228 472.603 311.23 472.606 311.232C472.608 311.234 472.61 311.236 472.612 311.238C472.614 311.24 472.616 311.242 472.618 311.244C472.62 311.246 472.622 311.248 472.624 311.251C472.626 311.253 472.628 311.255 472.63 311.257C472.632 311.259 472.634 311.261 472.637 311.263C472.639 311.265 472.641 311.267 472.643 311.269C472.645 311.271 472.647 311.273 472.649 311.275C472.651 311.277 472.653 311.279 472.655 311.281C472.657 311.283 472.659 311.285 472.661 311.288C472.663 311.29 472.665 311.292 472.667 311.294C472.669 311.296 472.671 311.298 472.673 311.3C472.675 311.302 472.677 311.304 472.68 311.306C472.682 311.308 472.684 311.31 472.686 311.312C472.688 311.314 472.69 311.316 472.692 311.318C472.694 311.32 472.696 311.322 472.698 311.324C472.7 311.326 472.702 311.328 472.704 311.33C472.706 311.332 472.708 311.334 472.71 311.336C472.712 311.338 472.714 311.34 472.716 311.342C472.718 311.344 472.72 311.346 472.722 311.348C472.724 311.35 472.726 311.353 472.728 311.355C472.73 311.357 472.732 311.359 472.734 311.361C472.736 311.363 472.738 311.365 472.74 311.367C472.742 311.369 472.744 311.371 472.746 311.373C472.748 311.375 472.75 311.377 472.752 311.379C472.754 311.381 472.756 311.383 472.758 311.385C472.76 311.387 472.762 311.389 472.764 311.391C472.766 311.393 472.768 311.395 472.77 311.397C472.773 311.399 472.779 311.406 472.782 311.409C472.787 311.414 472.801 311.427 472.806 311.432C472.808 311.434 472.81 311.436 472.812 311.438C472.814 311.44 472.816 311.442 472.818 311.444C472.82 311.446 472.822 311.448 472.824 311.45C472.826 311.452 472.828 311.454 472.829 311.456C472.831 311.458 472.833 311.46 472.835 311.462C472.837 311.464 472.839 311.466 472.841 311.468C472.843 311.47 472.845 311.472 472.847 311.473C472.849 311.475 472.851 311.477 472.853 311.479C472.855 311.481 472.857 311.483 472.859 311.485C472.861 311.487 472.863 311.489 472.865 311.491C472.867 311.493 472.869 311.495 472.87 311.497C472.872 311.499 472.874 311.501 472.876 311.503C472.878 311.505 472.88 311.507 472.882 311.508C472.884 311.51 472.886 311.512 472.888 311.514C472.89 311.516 472.892 311.518 472.894 311.52C472.896 311.522 472.898 311.524 472.899 311.526C472.901 311.528 472.903 311.53 472.905 311.532C472.907 311.534 472.909 311.535 472.911 311.537C472.913 311.539 472.915 311.541 472.917 311.543C472.919 311.545 472.921 311.547 472.922 311.549C472.924 311.551 472.926 311.553 472.928 311.555C472.93 311.556 472.932 311.558 472.934 311.56C472.936 311.562 472.938 311.564 472.94 311.566C472.942 311.568 472.943 311.57 472.945 311.572C472.947 311.574 472.949 311.576 472.951 311.577C472.953 311.579 472.955 311.581 472.957 311.583C472.959 311.585 472.961 311.587 472.962 311.589C472.964 311.591 472.966 311.593 472.968 311.594C472.97 311.596 472.972 311.598 472.974 311.6C472.976 311.602 472.977 311.604 472.979 311.606C472.981 311.608 472.983 311.61 472.985 311.611C472.987 311.613 472.989 311.615 472.991 311.617C472.993 311.619 472.994 311.621 472.996 311.623C472.998 311.625 473 311.626 473.002 311.628C473.004 311.63 473.006 311.632 473.007 311.634C473.009 311.636 473.011 311.638 473.013 311.639C473.015 311.641 473.017 311.643 473.019 311.645C473.021 311.647 473.022 311.649 473.024 311.651C473.026 311.652 473.028 311.654 473.03 311.656C473.032 311.658 473.034 311.66 473.035 311.662C473.037 311.664 473.039 311.665 473.041 311.667C473.043 311.669 473.045 311.671 473.046 311.673C473.049 311.675 473.055 311.681 473.058 311.684C473.059 311.686 473.061 311.688 473.063 311.689C473.065 311.691 473.067 311.693 473.069 311.695C473.07 311.697 473.072 311.699 473.074 311.7C473.076 311.702 473.078 311.704 473.08 311.706C473.081 311.708 473.083 311.71 473.085 311.711C473.087 311.713 473.089 311.715 473.09 311.717C473.092 311.719 473.094 311.72 473.096 311.722C473.098 311.724 473.1 311.726 473.101 311.728C473.103 311.73 473.105 311.731 473.107 311.733C473.109 311.735 473.11 311.737 473.112 311.739C473.114 311.74 473.116 311.742 473.118 311.744C473.119 311.746 473.121 311.748 473.123 311.749C473.125 311.751 473.127 311.753 473.128 311.755C473.13 311.757 473.132 311.758 473.134 311.76C473.136 311.762 473.137 311.764 473.139 311.766C473.141 311.767 473.143 311.769 473.145 311.771C473.154 311.781 473.178 311.804 473.187 311.814C473.192 311.818 473.204 311.83 473.208 311.835C473.211 311.837 473.217 311.843 473.219 311.845C473.221 311.847 473.222 311.849 473.224 311.851C473.226 311.852 473.228 311.854 473.229 311.856C473.231 311.858 473.233 311.859 473.235 311.861C473.236 311.863 473.238 311.864 473.24 311.866C473.242 311.868 473.243 311.87 473.245 311.871C473.247 311.873 473.248 311.875 473.25 311.877C473.252 311.878 473.254 311.88 473.255 311.882C473.257 311.884 473.259 311.885 473.261 311.887C473.262 311.889 473.264 311.89 473.266 311.892C473.267 311.894 473.269 311.896 473.271 311.897C473.273 311.899 473.274 311.901 473.276 311.902C473.278 311.904 473.279 311.906 473.281 311.908C473.283 311.909 473.285 311.911 473.286 311.913C473.288 311.914 473.29 311.916 473.291 311.918C473.293 311.92 473.295 311.921 473.297 311.923C473.298 311.925 473.3 311.926 473.302 311.928C473.303 311.93 473.305 311.931 473.307 311.933C473.308 311.935 473.31 311.936 473.312 311.938C473.386 312.013 473.556 312.183 473.618 312.244C473.626 312.252 473.646 312.272 473.654 312.28C473.655 312.282 473.657 312.283 473.658 312.284C473.66 312.286 473.661 312.287 473.663 312.289C473.664 312.29 473.665 312.292 473.667 312.293C473.668 312.295 473.67 312.296 473.671 312.298C473.673 312.299 473.674 312.301 473.676 312.302C473.677 312.304 473.679 312.305 473.68 312.306C473.682 312.308 473.683 312.309 473.684 312.311C473.686 312.312 473.687 312.314 473.689 312.315C473.69 312.317 473.692 312.318 473.693 312.319C473.695 312.321 473.696 312.322 473.697 312.324C473.699 312.326 473.704 312.331 473.706 312.332C473.708 312.334 473.709 312.335 473.71 312.337C473.712 312.338 473.713 312.34 473.715 312.341C473.716 312.342 473.718 312.344 473.719 312.345C473.72 312.347 473.722 312.348 473.723 312.35C473.725 312.351 473.726 312.352 473.728 312.354C473.729 312.355 473.73 312.357 473.732 312.358C473.733 312.36 473.735 312.361 473.736 312.362C473.737 312.364 473.739 312.365 473.74 312.367C473.742 312.368 473.743 312.369 473.744 312.371C473.746 312.372 473.747 312.374 473.749 312.375C473.75 312.376 473.752 312.378 473.753 312.379C473.754 312.381 473.756 312.382 473.757 312.384C473.759 312.385 473.76 312.386 473.761 312.388C473.763 312.389 473.764 312.39 473.766 312.392C473.767 312.393 473.768 312.395 473.77 312.396C473.771 312.397 473.772 312.399 473.774 312.4C473.775 312.402 473.777 312.403 473.778 312.404C473.779 312.406 473.781 312.407 473.782 312.409C473.784 312.41 473.785 312.411 473.786 312.413C473.788 312.414 473.789 312.415 473.79 312.417C473.792 312.418 473.793 312.42 473.795 312.421C473.796 312.422 473.797 312.424 473.799 312.425C473.8 312.427 473.805 312.431 473.807 312.433C473.808 312.435 473.81 312.436 473.811 312.437C473.812 312.439 473.814 312.44 473.815 312.441C473.816 312.443 473.818 312.444 473.819 312.445C473.82 312.447 473.822 312.448 473.823 312.45C473.824 312.451 473.826 312.452 473.827 312.454C473.829 312.455 473.83 312.456 473.831 312.458C473.833 312.459 473.834 312.46 473.835 312.462C473.837 312.463 473.838 312.464 473.839 312.466C473.841 312.467 473.842 312.468 473.843 312.47C473.845 312.471 473.846 312.472 473.847 312.474C473.849 312.475 473.85 312.476 473.851 312.478C473.853 312.479 473.854 312.48 473.855 312.482C473.857 312.483 473.858 312.484 473.859 312.486C473.861 312.487 473.862 312.488 473.863 312.49C473.865 312.491 473.866 312.492 473.867 312.494C473.868 312.495 473.87 312.496 473.871 312.497C473.872 312.499 473.874 312.5 473.875 312.501C473.876 312.503 473.878 312.504 473.879 312.505C473.88 312.507 473.882 312.508 473.883 312.509C473.884 312.511 473.886 312.512 473.887 312.513C473.888 312.514 473.889 312.516 473.891 312.517C473.892 312.518 473.893 312.52 473.895 312.521C473.896 312.523 473.901 312.527 473.902 312.529C473.904 312.53 473.905 312.531 473.906 312.533C473.908 312.534 473.909 312.535 473.91 312.536C473.911 312.538 473.913 312.539 473.914 312.54C473.915 312.542 473.916 312.543 473.918 312.544C473.919 312.545 473.92 312.547 473.922 312.548C473.923 312.549 473.924 312.551 473.925 312.552C473.927 312.553 473.928 312.554 473.929 312.556C473.93 312.557 473.932 312.558 473.933 312.559C473.934 312.561 473.936 312.562 473.937 312.563C473.938 312.564 473.939 312.566 473.941 312.567C473.942 312.568 473.943 312.569 473.944 312.571C473.946 312.572 473.947 312.573 473.948 312.575C473.949 312.576 473.951 312.577 473.952 312.578C473.953 312.58 473.954 312.581 473.956 312.582C473.957 312.583 473.958 312.585 473.959 312.586C473.961 312.587 473.962 312.588 473.963 312.589C473.964 312.591 473.966 312.592 473.967 312.593C473.968 312.594 473.969 312.596 473.971 312.597C473.972 312.598 473.973 312.599 473.974 312.601C473.975 312.602 473.977 312.603 473.978 312.604C473.979 312.606 473.98 312.607 473.982 312.608C473.983 312.609 473.984 312.61 473.985 312.612C473.987 312.613 473.988 312.614 473.989 312.615C473.99 312.617 473.991 312.618 473.993 312.619C473.994 312.62 473.995 312.621 473.996 312.623C473.997 312.624 473.999 312.625 474 312.626C474.001 312.627 474.002 312.629 474.004 312.63C474.005 312.631 474.006 312.632 474.007 312.634C474.008 312.635 474.01 312.636 474.011 312.637C474.012 312.638 474.013 312.64 474.014 312.641C474.016 312.642 474.017 312.643 474.018 312.644C474.019 312.645 474.02 312.647 474.022 312.648C474.023 312.649 474.024 312.65 474.025 312.651C474.026 312.653 474.027 312.654 474.029 312.655C474.03 312.656 474.031 312.657 474.032 312.659C474.033 312.66 474.035 312.661 474.036 312.662C474.037 312.663 474.038 312.664 474.039 312.666C474.04 312.667 474.042 312.668 474.043 312.669C474.044 312.67 474.045 312.672 474.046 312.673C474.047 312.674 474.049 312.675 474.05 312.676C474.051 312.677 474.052 312.679 474.053 312.68C474.054 312.681 474.056 312.682 474.057 312.683C474.058 312.684 474.059 312.686 474.06 312.687C474.061 312.688 474.063 312.689 474.064 312.69C474.065 312.691 474.066 312.692 474.067 312.694C474.068 312.695 474.07 312.696 474.071 312.697C474.072 312.698 474.073 312.699 474.074 312.701C474.075 312.702 474.076 312.703 474.078 312.704C474.079 312.705 474.08 312.706 474.081 312.707C474.082 312.709 474.083 312.71 474.084 312.711C474.086 312.712 474.087 312.713 474.088 312.714C474.089 312.715 474.09 312.716 474.091 312.718C474.092 312.719 474.093 312.72 474.095 312.721C474.096 312.722 474.097 312.723 474.098 312.724C474.099 312.725 474.1 312.727 474.101 312.728C474.102 312.729 474.104 312.73 474.105 312.731C474.106 312.732 474.107 312.733 474.108 312.734C474.109 312.736 474.11 312.737 474.111 312.738C474.113 312.739 474.114 312.74 474.115 312.741C474.116 312.742 474.117 312.743 474.118 312.744C474.13 312.756 474.159 312.785 474.17 312.796C474.171 312.797 474.172 312.799 474.173 312.8C474.174 312.801 474.175 312.802 474.176 312.803C474.177 312.804 474.178 312.805 474.179 312.806C474.181 312.807 474.182 312.808 474.183 312.809C474.184 312.81 474.185 312.811 474.186 312.812C474.187 312.813 474.188 312.814 474.189 312.815C474.19 312.816 474.191 312.817 474.192 312.818C474.193 312.819 474.194 312.82 474.195 312.821C474.196 312.823 474.197 312.824 474.198 312.825C474.199 312.826 474.2 312.827 474.201 312.828C474.202 312.829 474.203 312.83 474.204 312.831C474.205 312.832 474.206 312.833 474.207 312.834C474.208 312.835 474.209 312.836 474.211 312.837C474.212 312.838 474.213 312.839 474.214 312.84C474.215 312.841 474.216 312.842 474.217 312.843C474.218 312.844 474.219 312.845 474.22 312.846C474.221 312.847 474.222 312.848 474.223 312.849C474.224 312.85 474.225 312.851 474.226 312.852C474.227 312.853 474.23 312.857 474.232 312.858C474.233 312.859 474.234 312.86 474.235 312.861C474.236 312.862 474.237 312.863 474.238 312.864C474.239 312.865 474.24 312.866 474.241 312.867C474.242 312.868 474.243 312.869 474.244 312.87C474.245 312.871 474.246 312.872 474.247 312.873C474.247 312.874 474.248 312.875 474.249 312.876C474.25 312.877 474.251 312.878 474.252 312.879C474.253 312.88 474.254 312.881 474.255 312.882C474.256 312.883 474.257 312.884 474.258 312.885C474.259 312.886 474.26 312.887 474.261 312.887C474.262 312.888 474.263 312.889 474.264 312.89C474.265 312.891 474.266 312.892 474.267 312.893C474.268 312.894 474.269 312.895 474.27 312.896C474.271 312.897 474.272 312.898 474.273 312.899C474.274 312.9 474.275 312.901 474.275 312.902C474.276 312.903 474.277 312.904 474.278 312.905C474.279 312.906 474.28 312.907 474.281 312.908C474.282 312.909 474.283 312.909 474.284 312.91C474.285 312.911 474.286 312.912 474.287 312.913C474.288 312.914 474.289 312.915 474.29 312.916C474.291 312.917 474.292 312.918 474.292 312.919C474.293 312.92 474.294 312.921 474.295 312.922C474.296 312.923 474.297 312.923 474.298 312.924C474.299 312.925 474.3 312.926 474.301 312.927C474.302 312.928 474.303 312.929 474.304 312.93C474.304 312.931 474.305 312.932 474.306 312.933C474.307 312.934 474.308 312.935 474.309 312.935C474.31 312.936 474.311 312.937 474.312 312.938C474.317 312.943 474.329 312.955 474.333 312.96C474.334 312.961 474.335 312.962 474.336 312.962C474.337 312.963 474.338 312.964 474.339 312.965C474.34 312.966 474.34 312.967 474.341 312.968C474.342 312.969 474.343 312.969 474.344 312.97C474.345 312.971 474.346 312.972 474.347 312.973C474.347 312.974 474.348 312.975 474.349 312.976C474.35 312.976 474.351 312.977 474.352 312.978C474.353 312.979 474.354 312.98 474.354 312.981C474.355 312.982 474.356 312.982 474.357 312.983C474.358 312.984 474.359 312.985 474.36 312.986C474.36 312.987 474.361 312.988 474.362 312.988C474.363 312.989 474.364 312.99 474.365 312.991C474.367 312.993 474.373 312.999 474.375 313.001C474.376 313.002 474.376 313.003 474.377 313.004C474.378 313.005 474.379 313.005 474.38 313.006C474.381 313.007 474.381 313.008 474.382 313.009C474.383 313.01 474.384 313.01 474.385 313.011C474.386 313.012 474.386 313.013 474.387 313.014C474.388 313.014 474.389 313.015 474.39 313.016C474.391 313.017 474.391 313.018 474.392 313.019C474.393 313.019 474.394 313.02 474.395 313.021C474.395 313.022 474.396 313.023 474.397 313.023C474.398 313.024 474.399 313.025 474.399 313.026C474.4 313.027 474.401 313.027 474.402 313.028C474.403 313.029 474.404 313.03 474.404 313.031C474.405 313.031 474.406 313.032 474.407 313.033C474.408 313.034 474.408 313.035 474.409 313.035C474.41 313.036 474.411 313.037 474.411 313.038C474.412 313.039 474.413 313.039 474.414 313.04C474.415 313.041 474.415 313.042 474.416 313.043C474.417 313.043 474.418 313.044 474.419 313.045C474.419 313.046 474.42 313.047 474.421 313.047C474.422 313.048 474.422 313.049 474.423 313.05C474.424 313.05 474.425 313.051 474.426 313.052C474.426 313.053 474.427 313.054 474.428 313.054C474.429 313.055 474.429 313.056 474.43 313.057C474.431 313.057 474.432 313.058 474.433 313.059C474.433 313.06 474.434 313.06 474.435 313.061C474.436 313.062 474.436 313.063 474.437 313.063C474.438 313.064 474.439 313.065 474.439 313.066C474.44 313.066 474.441 313.067 474.442 313.068C474.442 313.069 474.443 313.07 474.444 313.07C474.445 313.071 474.445 313.072 474.446 313.072C474.447 313.073 474.448 313.074 474.448 313.075C474.449 313.075 474.45 313.076 474.451 313.077C474.451 313.078 474.452 313.078 474.453 313.079C474.454 313.08 474.454 313.081 474.455 313.081C474.456 313.082 474.456 313.083 474.457 313.084C474.458 313.084 474.459 313.085 474.459 313.086C474.46 313.086 474.461 313.087 474.462 313.088C474.462 313.089 474.463 313.089 474.464 313.09C474.464 313.091 474.465 313.092 474.466 313.092C474.467 313.093 474.467 313.094 474.468 313.094C474.469 313.095 474.469 313.096 474.47 313.097C474.471 313.097 474.472 313.098 474.472 313.099C474.473 313.099 474.474 313.1 474.474 313.101C474.475 313.102 474.476 313.102 474.477 313.103C474.477 313.104 474.478 313.104 474.479 313.105C474.479 313.106 474.48 313.106 474.481 313.107C474.481 313.108 474.482 313.109 474.483 313.109C474.484 313.11 474.484 313.111 474.485 313.111C474.489 313.115 474.498 313.124 474.501 313.128C474.502 313.128 474.503 313.129 474.503 313.13C474.504 313.13 474.505 313.131 474.505 313.132C474.506 313.132 474.507 313.133 474.507 313.134C474.508 313.134 474.509 313.135 474.509 313.136C474.51 313.136 474.511 313.137 474.511 313.138C474.512 313.138 474.512 313.139 474.513 313.139C474.514 313.14 474.514 313.141 474.515 313.141C474.516 313.142 474.516 313.143 474.517 313.143C474.518 313.144 474.518 313.145 474.519 313.145C474.52 313.146 474.52 313.147 474.521 313.147C474.521 313.148 474.522 313.148 474.523 313.149C474.523 313.15 474.524 313.15 474.525 313.151C474.525 313.152 474.526 313.152 474.527 313.153C474.527 313.154 474.528 313.154 474.528 313.155C474.529 313.155 474.53 313.156 474.53 313.157C474.531 313.157 474.532 313.158 474.532 313.159C474.533 313.159 474.533 313.16 474.534 313.16C474.535 313.161 474.535 313.162 474.536 313.162C474.536 313.163 474.537 313.163 474.538 313.164C474.538 313.165 474.539 313.165 474.539 313.166C474.54 313.166 474.541 313.167 474.541 313.168C474.542 313.168 474.542 313.169 474.543 313.169C474.544 313.17 474.544 313.171 474.545 313.171C474.545 313.172 474.546 313.172 474.547 313.173C474.547 313.174 474.548 313.174 474.548 313.175C474.549 313.175 474.55 313.176 474.55 313.177C474.551 313.177 474.551 313.178 474.552 313.178C474.553 313.179 474.553 313.18 474.554 313.18C474.554 313.181 474.555 313.181 474.555 313.182C474.556 313.182 474.557 313.183 474.557 313.184C474.558 313.184 474.558 313.185 474.559 313.185C474.559 313.186 474.56 313.186 474.561 313.187C474.561 313.188 474.562 313.188 474.562 313.189C474.563 313.189 474.563 313.19 474.564 313.19C474.565 313.191 474.567 313.193 474.567 313.194C474.568 313.194 474.569 313.195 474.569 313.195C474.57 313.196 474.57 313.197 474.571 313.197C474.571 313.198 474.572 313.198 474.572 313.199C474.573 313.199 474.573 313.2 474.574 313.2C474.575 313.201 474.577 313.203 474.577 313.204C474.578 313.204 474.578 313.205 474.579 313.205C474.579 313.206 474.58 313.206 474.58 313.207C474.581 313.207 474.582 313.208 474.582 313.208C474.583 313.209 474.583 313.21 474.584 313.21C474.584 313.211 474.586 313.212 474.587 313.213L517.013 270.787C517.013 270.786 517.012 270.786 517.012 270.785C517.011 270.785 517.011 270.784 517.01 270.784C517.01 270.783 517.009 270.783 517.008 270.782C517.008 270.782 517.007 270.781 517.007 270.78C517.006 270.78 517.006 270.779 517.005 270.779C517.005 270.778 517.004 270.778 517.004 270.777C517.003 270.777 517.003 270.776 517.002 270.776C517.002 270.775 517.001 270.775 517 270.774C516.998 270.771 516.997 270.77 516.994 270.767C516.993 270.767 516.993 270.766 516.992 270.766C516.992 270.765 516.991 270.765 516.99 270.764C516.99 270.763 516.989 270.763 516.989 270.762C516.988 270.762 516.988 270.761 516.987 270.761C516.986 270.76 516.986 270.759 516.985 270.759C516.985 270.758 516.984 270.758 516.984 270.757C516.983 270.757 516.982 270.756 516.982 270.755C516.981 270.755 516.981 270.754 516.98 270.754C516.979 270.752 516.975 270.748 516.973 270.747C516.972 270.746 516.972 270.745 516.971 270.745C516.971 270.744 516.97 270.744 516.969 270.743C516.969 270.742 516.968 270.742 516.968 270.741C516.967 270.741 516.966 270.74 516.966 270.739C516.965 270.739 516.965 270.738 516.964 270.738C516.963 270.737 516.963 270.736 516.962 270.736C516.961 270.735 516.959 270.733 516.959 270.732C516.957 270.73 516.953 270.726 516.951 270.725C516.95 270.724 516.95 270.723 516.949 270.723C516.949 270.722 516.948 270.721 516.947 270.721C516.947 270.72 516.946 270.72 516.945 270.719C516.945 270.718 516.944 270.718 516.943 270.717C516.943 270.716 516.942 270.716 516.941 270.715C516.941 270.714 516.94 270.714 516.94 270.713C516.939 270.712 516.938 270.712 516.938 270.711C516.937 270.71 516.936 270.71 516.936 270.709C516.935 270.709 516.934 270.708 516.934 270.707C516.933 270.707 516.932 270.706 516.932 270.705C516.931 270.705 516.93 270.704 516.93 270.703C516.929 270.703 516.928 270.702 516.928 270.701C516.927 270.701 516.926 270.7 516.926 270.699C516.925 270.699 516.924 270.698 516.924 270.697C516.923 270.697 516.922 270.696 516.922 270.695C516.921 270.695 516.92 270.694 516.92 270.693C516.919 270.692 516.918 270.692 516.918 270.691C516.917 270.69 516.916 270.69 516.915 270.689C516.915 270.688 516.914 270.688 516.913 270.687C516.913 270.686 516.912 270.686 516.911 270.685C516.908 270.681 516.907 270.68 516.903 270.677C516.902 270.676 516.902 270.675 516.901 270.674C516.9 270.674 516.899 270.673 516.899 270.672C516.898 270.672 516.897 270.671 516.897 270.67C516.896 270.669 516.895 270.669 516.894 270.668C516.894 270.667 516.893 270.667 516.892 270.666C516.892 270.665 516.891 270.664 516.89 270.664C516.889 270.663 516.889 270.662 516.888 270.662C516.887 270.661 516.887 270.66 516.886 270.659C516.885 270.659 516.884 270.658 516.884 270.657C516.883 270.656 516.882 270.656 516.881 270.655C516.881 270.654 516.88 270.654 516.879 270.653C516.878 270.652 516.878 270.651 516.877 270.651C516.875 270.649 516.875 270.648 516.873 270.646C516.872 270.645 516.871 270.645 516.87 270.644C516.87 270.643 516.869 270.642 516.868 270.642C516.867 270.641 516.867 270.64 516.866 270.639C516.865 270.639 516.864 270.638 516.863 270.637C516.862 270.636 516.86 270.634 516.859 270.632C516.858 270.632 516.857 270.631 516.857 270.63C516.856 270.629 516.855 270.629 516.854 270.628C516.854 270.627 516.853 270.626 516.852 270.626C516.851 270.625 516.85 270.624 516.85 270.623C516.849 270.622 516.846 270.62 516.845 270.619C516.844 270.618 516.843 270.617 516.843 270.616C516.842 270.615 516.841 270.615 516.84 270.614C516.839 270.613 516.839 270.612 516.838 270.611C516.837 270.611 516.836 270.61 516.836 270.609C516.835 270.608 516.834 270.607 516.833 270.607C516.832 270.606 516.832 270.605 516.831 270.604C516.83 270.603 516.829 270.603 516.828 270.602C516.828 270.601 516.827 270.6 516.826 270.599C516.825 270.599 516.824 270.598 516.823 270.597C516.823 270.596 516.822 270.595 516.821 270.595C516.804 270.578 516.758 270.532 516.738 270.512C516.729 270.502 516.704 270.477 516.693 270.467C516.692 270.466 516.691 270.465 516.69 270.464C516.689 270.463 516.688 270.462 516.688 270.461C516.687 270.46 516.686 270.459 516.685 270.458C516.684 270.457 516.683 270.456 516.682 270.455C516.681 270.454 516.68 270.453 516.679 270.452C516.678 270.451 516.677 270.45 516.676 270.449C516.675 270.448 516.671 270.445 516.67 270.444C516.669 270.443 516.668 270.442 516.667 270.441C516.666 270.44 516.665 270.439 516.664 270.438C516.663 270.437 516.662 270.436 516.661 270.435C516.66 270.434 516.659 270.433 516.658 270.432C516.657 270.431 516.656 270.43 516.655 270.429C516.654 270.428 516.653 270.427 516.652 270.426C516.651 270.425 516.65 270.424 516.649 270.423C516.648 270.422 516.647 270.421 516.646 270.42C516.645 270.419 516.644 270.418 516.643 270.417C516.642 270.416 516.641 270.415 516.64 270.414C516.639 270.412 516.635 270.409 516.634 270.407C516.633 270.406 516.632 270.405 516.631 270.404C516.63 270.403 516.629 270.402 516.628 270.401C516.627 270.4 516.626 270.399 516.625 270.398C516.624 270.397 516.623 270.396 516.622 270.395C516.62 270.394 516.619 270.393 516.618 270.392C516.617 270.391 516.616 270.39 516.615 270.389C516.614 270.388 516.613 270.387 516.612 270.386C516.611 270.385 516.61 270.384 516.609 270.383C516.608 270.382 516.607 270.381 516.606 270.379C516.605 270.378 516.604 270.377 516.603 270.376C516.601 270.375 516.598 270.371 516.596 270.37C516.595 270.369 516.594 270.368 516.593 270.367C516.592 270.366 516.591 270.365 516.59 270.364C516.589 270.363 516.588 270.361 516.587 270.36C516.586 270.359 516.585 270.358 516.584 270.357C516.583 270.356 516.582 270.355 516.58 270.354C516.579 270.353 516.578 270.352 516.577 270.351C516.576 270.35 516.575 270.349 516.574 270.348C516.573 270.346 516.572 270.345 516.571 270.344C516.57 270.343 516.569 270.342 516.567 270.341C516.566 270.34 516.565 270.339 516.564 270.338C516.563 270.337 516.562 270.336 516.561 270.335C516.56 270.333 516.559 270.332 516.558 270.331C516.557 270.33 516.555 270.329 516.554 270.328C516.553 270.327 516.552 270.326 516.551 270.325C516.55 270.324 516.549 270.322 516.548 270.321C516.547 270.32 516.546 270.319 516.544 270.318C516.543 270.317 516.542 270.316 516.541 270.315C516.54 270.314 516.539 270.312 516.538 270.311C516.537 270.31 516.536 270.309 516.534 270.308C516.533 270.307 516.532 270.306 516.531 270.305C516.53 270.304 516.529 270.302 516.528 270.301C516.527 270.3 516.526 270.299 516.524 270.298C516.523 270.297 516.522 270.296 516.521 270.295C516.52 270.293 516.519 270.292 516.518 270.291C516.516 270.29 516.515 270.289 516.514 270.288C516.513 270.287 516.512 270.286 516.511 270.284C516.51 270.283 516.509 270.282 516.507 270.281C516.506 270.28 516.505 270.279 516.504 270.278C516.503 270.276 516.502 270.275 516.501 270.274C516.499 270.273 516.498 270.272 516.497 270.271C516.496 270.27 516.495 270.268 516.494 270.267C516.492 270.266 516.491 270.265 516.49 270.264C516.489 270.263 516.488 270.261 516.487 270.26C516.486 270.259 516.484 270.258 516.483 270.257C516.482 270.256 516.481 270.254 516.48 270.253C516.479 270.252 516.477 270.251 516.476 270.25C516.475 270.249 516.474 270.247 516.473 270.246C516.472 270.245 516.47 270.244 516.469 270.243C516.468 270.242 516.467 270.24 516.466 270.239C516.465 270.238 516.463 270.237 516.462 270.236C516.456 270.229 516.44 270.214 516.434 270.207C516.432 270.206 516.431 270.205 516.43 270.203C516.429 270.202 516.427 270.201 516.426 270.2C516.425 270.199 516.424 270.197 516.423 270.196C516.421 270.195 516.42 270.194 516.419 270.193C516.418 270.191 516.417 270.19 516.415 270.189C516.414 270.188 516.413 270.186 516.412 270.185C516.41 270.184 516.409 270.183 516.408 270.182C516.407 270.18 516.406 270.179 516.404 270.178C516.403 270.177 516.402 270.175 516.401 270.174C516.399 270.173 516.398 270.172 516.397 270.171C516.396 270.169 516.394 270.168 516.393 270.167C516.392 270.166 516.391 270.164 516.39 270.163C516.388 270.162 516.387 270.161 516.386 270.159C516.385 270.158 516.383 270.157 516.382 270.156C516.381 270.154 516.38 270.153 516.378 270.152C516.377 270.151 516.376 270.149 516.375 270.148C516.373 270.147 516.372 270.146 516.371 270.144C516.37 270.143 516.368 270.142 516.367 270.141C516.366 270.139 516.364 270.138 516.363 270.137C516.362 270.136 516.361 270.134 516.359 270.133C516.358 270.132 516.357 270.13 516.356 270.129C516.354 270.128 516.353 270.127 516.352 270.125C516.351 270.124 516.349 270.123 516.348 270.122C516.347 270.12 516.345 270.119 516.344 270.118C516.341 270.114 516.332 270.106 516.329 270.102C516.327 270.101 516.326 270.1 516.325 270.098C516.324 270.097 516.322 270.096 516.321 270.095C516.32 270.093 516.318 270.092 516.317 270.091C516.316 270.089 516.315 270.088 516.313 270.087C516.312 270.085 516.311 270.084 516.309 270.083C516.308 270.082 516.307 270.08 516.305 270.079C516.304 270.078 516.303 270.076 516.301 270.075C516.3 270.074 516.299 270.072 516.298 270.071C516.296 270.07 516.295 270.068 516.294 270.067C516.292 270.066 516.291 270.065 516.29 270.063C516.288 270.062 516.287 270.061 516.286 270.059C516.284 270.058 516.283 270.057 516.282 270.055C516.28 270.054 516.279 270.053 516.278 270.051C516.276 270.05 516.275 270.049 516.274 270.047C516.272 270.046 516.271 270.045 516.27 270.043C516.268 270.042 516.267 270.041 516.266 270.039C516.264 270.038 516.263 270.037 516.262 270.035C516.26 270.034 516.259 270.033 516.258 270.031C516.256 270.03 516.255 270.029 516.254 270.027C516.252 270.026 516.251 270.024 516.25 270.023C516.248 270.022 516.247 270.02 516.245 270.019C516.244 270.018 516.243 270.016 516.241 270.015C516.24 270.014 516.239 270.012 516.237 270.011C516.236 270.01 516.235 270.008 516.233 270.007C516.232 270.005 516.231 270.004 516.229 270.003C516.228 270.001 516.226 270 516.225 269.999C516.224 269.997 516.222 269.996 516.221 269.995C516.22 269.993 516.218 269.992 516.217 269.99C516.215 269.989 516.214 269.988 516.213 269.986C516.211 269.985 516.21 269.984 516.209 269.982C516.207 269.98 516.202 269.976 516.2 269.974C516.197 269.97 516.187 269.961 516.184 269.957C516.169 269.942 516.165 269.938 516.15 269.923C516.148 269.922 516.147 269.92 516.145 269.919C516.144 269.918 516.143 269.916 516.141 269.915C516.14 269.913 516.138 269.912 516.137 269.91C516.135 269.909 516.134 269.907 516.132 269.906C516.131 269.905 516.13 269.903 516.128 269.902C516.127 269.9 516.125 269.899 516.124 269.897C516.122 269.896 516.121 269.895 516.12 269.893C516.118 269.892 516.117 269.89 516.115 269.889C516.114 269.887 516.112 269.886 516.111 269.884C516.109 269.883 516.108 269.881 516.106 269.88C516.105 269.879 516.104 269.877 516.102 269.876C516.101 269.874 516.099 269.873 516.098 269.871C516.094 269.867 516.084 269.858 516.08 269.854C516.079 269.852 516.077 269.851 516.076 269.849C516.074 269.848 516.073 269.846 516.071 269.845C516.07 269.843 516.068 269.842 516.067 269.84C516.065 269.839 516.064 269.837 516.062 269.836C516.061 269.834 516.059 269.833 516.058 269.831C516.056 269.83 516.055 269.828 516.053 269.827C516.052 269.826 516.05 269.824 516.049 269.823C516.047 269.821 516.046 269.82 516.044 269.818C516.043 269.817 516.041 269.815 516.04 269.814C516.038 269.812 516.037 269.811 516.035 269.809C516.034 269.808 516.032 269.806 516.031 269.805C516.029 269.803 516.028 269.802 516.026 269.8C516.022 269.796 516.021 269.795 516.017 269.791C516.016 269.789 516.014 269.788 516.013 269.786C516.011 269.785 516.01 269.783 516.008 269.782C516.007 269.78 516.005 269.779 516.004 269.777C516.002 269.776 516.001 269.774 515.999 269.773C515.998 269.771 515.996 269.77 515.995 269.768C515.993 269.767 515.991 269.765 515.99 269.763C515.986 269.759 515.976 269.749 515.971 269.745C515.97 269.743 515.968 269.742 515.967 269.74C515.965 269.739 515.964 269.737 515.962 269.736C515.961 269.734 515.959 269.733 515.957 269.731C515.956 269.729 515.954 269.728 515.953 269.726C515.951 269.725 515.95 269.723 515.948 269.722C515.947 269.72 515.945 269.719 515.943 269.717C515.942 269.715 515.94 269.714 515.939 269.712C515.937 269.711 515.936 269.709 515.934 269.708C515.932 269.706 515.931 269.704 515.929 269.703C515.928 269.701 515.926 269.7 515.925 269.698C515.923 269.697 515.921 269.695 515.92 269.693C515.918 269.692 515.917 269.69 515.915 269.689C515.914 269.687 515.912 269.685 515.91 269.684C515.909 269.682 515.907 269.681 515.906 269.679C515.904 269.678 515.902 269.676 515.901 269.674C515.899 269.673 515.898 269.671 515.896 269.67C515.894 269.668 515.893 269.666 515.891 269.665C515.89 269.663 515.888 269.662 515.886 269.66C515.885 269.658 515.883 269.657 515.882 269.655C515.88 269.654 515.878 269.652 515.877 269.65C515.875 269.649 515.874 269.647 515.872 269.646C515.87 269.644 515.869 269.642 515.867 269.641C515.866 269.639 515.864 269.637 515.862 269.636C515.861 269.634 515.859 269.633 515.857 269.631C515.856 269.629 515.854 269.628 515.853 269.626C515.851 269.625 515.849 269.623 515.848 269.621C515.846 269.62 515.844 269.618 515.843 269.616C515.841 269.615 515.84 269.613 515.838 269.612C515.836 269.61 515.835 269.608 515.833 269.607C515.831 269.605 515.83 269.603 515.828 269.602C515.827 269.6 515.825 269.598 515.823 269.597C515.822 269.595 515.82 269.594 515.818 269.592C515.801 269.574 515.756 269.53 515.738 269.512C515.729 269.503 515.706 269.48 515.697 269.471C515.696 269.469 515.694 269.467 515.692 269.466C515.69 269.464 515.689 269.462 515.687 269.461C515.685 269.459 515.684 269.457 515.682 269.455C515.68 269.454 515.678 269.452 515.677 269.45C515.675 269.448 515.673 269.447 515.671 269.445C515.67 269.443 515.668 269.442 515.666 269.44C515.664 269.438 515.663 269.436 515.661 269.435C515.659 269.433 515.658 269.431 515.656 269.429C515.654 269.428 515.652 269.426 515.651 269.424C515.649 269.422 515.647 269.421 515.645 269.419C515.644 269.417 515.642 269.415 515.64 269.414C515.638 269.412 515.637 269.41 515.635 269.408C515.633 269.407 515.631 269.405 515.63 269.403C515.628 269.401 515.626 269.4 515.624 269.398C515.623 269.396 515.621 269.394 515.619 269.393C515.617 269.391 515.615 269.389 515.614 269.387C515.612 269.386 515.61 269.384 515.608 269.382C515.607 269.38 515.605 269.378 515.603 269.377C515.601 269.375 515.6 269.373 515.598 269.371C515.596 269.37 515.594 269.368 515.592 269.366C515.591 269.364 515.589 269.362 515.587 269.361C515.585 269.359 515.584 269.357 515.582 269.355C515.58 269.354 515.578 269.352 515.576 269.35C515.575 269.348 515.573 269.346 515.571 269.345C515.561 269.335 515.559 269.333 515.549 269.323C515.548 269.321 515.546 269.319 515.544 269.318C515.542 269.316 515.54 269.314 515.539 269.312C515.537 269.31 515.535 269.309 515.533 269.307C515.531 269.305 515.53 269.303 515.528 269.301C515.526 269.3 515.524 269.298 515.522 269.296C515.521 269.294 515.519 269.292 515.517 269.29C515.514 269.288 515.508 269.282 515.506 269.279C515.501 269.275 515.489 269.262 515.484 269.257C515.482 269.256 515.48 269.254 515.478 269.252C515.477 269.25 515.475 269.248 515.473 269.246C515.471 269.245 515.469 269.243 515.467 269.241C515.465 269.239 515.464 269.237 515.462 269.235C515.46 269.233 515.458 269.232 515.456 269.23C515.454 269.228 515.453 269.226 515.451 269.224C515.449 269.222 515.447 269.22 515.445 269.219C515.443 269.217 515.441 269.215 515.439 269.213C515.438 269.211 515.436 269.209 515.434 269.207C515.432 269.206 515.43 269.204 515.428 269.202C515.426 269.2 515.425 269.198 515.423 269.196C515.421 269.194 515.419 269.192 515.417 269.191C515.415 269.188 515.408 269.182 515.406 269.179C515.404 269.177 515.402 269.176 515.4 269.174C515.398 269.172 515.396 269.17 515.394 269.168C515.393 269.166 515.391 269.164 515.389 269.162C515.387 269.16 515.385 269.159 515.383 269.157C515.381 269.154 515.374 269.148 515.372 269.145C515.367 269.14 515.354 269.128 515.349 269.122C515.339 269.112 515.313 269.087 515.303 269.076C515.298 269.071 515.285 269.058 515.279 269.053C515.277 269.05 515.27 269.044 515.268 269.041C515.266 269.039 515.264 269.037 515.262 269.035C515.26 269.033 515.258 269.031 515.256 269.029C515.254 269.027 515.252 269.026 515.25 269.024C515.248 269.022 515.246 269.02 515.244 269.018C515.242 269.016 515.24 269.014 515.238 269.012C515.236 269.01 515.234 269.008 515.232 269.006C515.23 269.004 515.228 269.002 515.226 269C515.224 268.998 515.222 268.996 515.22 268.994C515.218 268.992 515.216 268.99 515.214 268.988C515.213 268.986 515.211 268.984 515.209 268.982C515.207 268.98 515.205 268.978 515.203 268.976C515.201 268.974 515.199 268.972 515.197 268.97C515.195 268.968 515.193 268.966 515.191 268.964C515.189 268.962 515.187 268.96 515.185 268.958C515.183 268.956 515.181 268.954 515.179 268.952C515.177 268.95 515.175 268.948 515.173 268.946C515.171 268.944 515.169 268.942 515.167 268.94C515.165 268.938 515.163 268.936 515.161 268.934C515.159 268.932 515.157 268.93 515.155 268.928C515.153 268.926 515.151 268.924 515.149 268.922C515.146 268.92 515.144 268.918 515.142 268.916C515.14 268.914 515.138 268.912 515.136 268.91C515.134 268.908 515.132 268.906 515.13 268.904C515.128 268.902 515.126 268.9 515.124 268.898C515.122 268.896 515.12 268.894 515.118 268.892C515.116 268.89 515.114 268.888 515.112 268.886C515.11 268.884 515.108 268.882 515.106 268.88C515.104 268.877 515.102 268.875 515.1 268.873C515.098 268.871 515.096 268.869 515.094 268.867C515.092 268.865 515.09 268.863 515.088 268.861C515.086 268.859 515.083 268.857 515.081 268.855C515.079 268.853 515.077 268.851 515.075 268.849C515.073 268.847 515.071 268.845 515.069 268.843C515.067 268.841 515.065 268.839 515.063 268.836C515.061 268.834 515.059 268.832 515.057 268.83C515.055 268.828 515.053 268.826 515.051 268.824C515.048 268.822 515.046 268.82 515.044 268.818C515.042 268.816 515.04 268.814 515.038 268.812C515.036 268.81 515.034 268.808 515.032 268.805C515.03 268.803 515.028 268.801 515.026 268.799C515.023 268.796 515.016 268.79 515.013 268.787L472.587 311.213ZM517.013 313.213L528.613 301.613L486.187 259.187L474.587 270.787L517.013 313.213ZM528.613 301.613C536.35 293.877 540.344 289.883 540.613 289.613L498.187 247.187C497.369 248.004 497.671 247.703 494.987 250.387C493.498 251.876 493.242 252.131 491.287 254.087C491.287 254.087 490.733 254.64 490.726 254.648C490.598 254.775 490.567 254.807 490.437 254.936C490.405 254.969 490.397 254.977 490.364 255.009C490.352 255.022 490.34 255.034 490.328 255.046C490.315 255.058 490.303 255.071 490.291 255.083C490.291 255.083 490.144 255.23 490.143 255.231C489.606 255.768 489.478 255.895 488.912 256.462C486.642 258.732 488.573 256.8 486.187 259.187L528.613 301.613ZM538.141 291.826C531.227 297.357 524.272 297.6 522.4 297.6C520.104 297.6 518.967 297.2 519.67 297.387L535.13 239.413C531.833 238.534 527.363 237.6 522.4 237.6C517.861 237.6 508.906 238.377 500.659 244.974L538.141 291.826ZM506.187 289.613C506.039 289.465 505.579 288.997 504.974 288.241C504.435 287.567 503.287 286.056 502.167 283.816L555.833 256.984C553.355 252.028 550.032 248.606 548.613 247.187L506.187 289.613ZM499.896 277.676C499.041 274.258 499.02 271.508 499.014 270.794C499.005 269.676 499.064 268.813 499.098 268.396C499.165 267.549 499.254 266.99 499.257 266.969C499.275 266.852 499.233 267.129 499.05 268.028C498.704 269.732 498.099 272.465 497.185 276.383C495.373 284.147 492.553 295.697 488.696 311.124L546.904 325.676C550.781 310.17 553.694 298.253 555.615 290.017C556.568 285.935 557.329 282.535 557.85 279.972C558.1 278.737 558.367 277.348 558.568 276.031C558.663 275.41 558.812 274.368 558.909 273.154C558.956 272.554 559.023 271.537 559.012 270.294C559.005 269.455 558.976 266.609 558.104 263.124L499.896 277.676ZM488.725 311.008C484.732 326.714 481.7 338.444 479.613 346.27C478.561 350.213 477.796 352.992 477.29 354.736C477.024 355.652 476.911 356 476.915 355.988C476.923 355.962 476.958 355.859 477.015 355.7C477.067 355.556 477.178 355.252 477.342 354.848C477.474 354.521 477.815 353.693 478.348 352.651C478.617 352.124 479.085 351.247 479.752 350.204C480.303 349.342 481.631 347.342 483.787 345.187L526.213 387.613C529.839 383.987 531.641 380.218 531.774 379.958C532.354 378.822 532.751 377.871 532.946 377.39C533.358 376.373 533.667 375.468 533.836 374.962C534.206 373.85 534.576 372.615 534.91 371.464C535.604 369.075 536.505 365.787 537.587 361.73C539.767 353.556 542.868 341.553 546.875 325.792L488.725 311.008ZM483.787 345.187L482.587 346.387L525.013 388.813L526.213 387.613L483.787 345.187ZM503.8 337.6H496.6V397.6H503.8V337.6ZM496.6 337.6C494.353 337.6 494.75 337.408 496.501 337.828C497.372 338.037 500.096 338.744 503.346 340.761C506.733 342.863 512.311 347.463 515.061 355.713L458.139 374.687C461.156 383.737 467.351 389.037 471.704 391.739C475.92 394.356 479.961 395.563 482.499 396.172C487.584 397.392 492.713 397.6 496.6 397.6V337.6ZM515.061 355.713C516.159 359.009 516.372 361.682 516.434 362.848C516.505 364.197 516.444 365.18 516.412 365.601C516.349 366.41 516.271 366.613 516.417 365.883L457.583 354.117C457.195 356.054 456.784 358.457 456.588 360.999C456.472 362.518 455.996 368.258 458.139 374.687L515.061 355.713ZM516.755 363.826C519.569 341.943 518.345 320.559 510.014 301.816L455.186 326.184C457.522 331.441 459.231 340.724 457.245 356.174L516.755 363.826ZM509.646 301.018C498.562 277.927 478.478 264.499 453.932 260.408L444.068 319.592C451.522 320.834 453.838 323.407 455.554 326.982L509.646 301.018ZM453.932 260.408C444.011 258.755 433.845 258.882 423.701 260.281L431.899 319.719C437.222 318.984 441.189 319.112 444.068 319.592L453.932 260.408ZM421.62 260.643C404.997 264.143 390.624 272.722 378.516 284.463L420.284 327.537C425.776 322.212 430.337 320.124 433.98 319.356L421.62 260.643ZM378.375 284.6C358.116 304.503 346.39 329.799 351.447 358.76L410.553 348.44C409.743 343.801 410.284 337.363 420.425 327.4L378.375 284.6ZM351.288 357.746C354.361 379.772 367.5 396.751 388.258 405.054L410.542 349.346C410.224 349.218 410.019 349.116 409.907 349.056C409.796 348.996 409.773 348.974 409.815 349.005C409.858 349.036 409.951 349.108 410.074 349.226C410.198 349.344 410.33 349.489 410.459 349.654C410.588 349.819 410.692 349.979 410.772 350.118C410.851 350.257 410.892 350.352 410.904 350.383C410.931 350.45 410.814 350.186 410.712 349.454L351.288 357.746ZM391.436 406.123L419.036 413.723L434.964 355.877L407.364 348.277L391.436 406.123ZM419.549 413.86C429.712 416.466 439.313 419.061 448.358 421.646L464.842 363.954C455.22 361.205 445.088 358.468 434.451 355.74L419.549 413.86ZM444.911 420.429C447.939 421.71 451.173 423.799 454.587 427.213L497.013 384.787C488.694 376.468 479.127 369.756 468.289 365.171L444.911 420.429ZM454.587 427.213C456.369 428.995 457.875 431.097 459.114 433.698L513.286 407.902C509.191 399.303 503.764 391.538 497.013 384.787L454.587 427.213ZM459.097 433.662C463.181 442.267 464.453 452.493 461.096 465.924L519.304 480.476C525.547 455.507 524.152 430.799 513.303 407.938L459.097 433.662ZM460.994 466.345C456.542 485.314 446.246 501.403 428.601 515.104L465.399 562.496C493.087 540.997 511.592 513.353 519.406 480.055L460.994 466.345ZM429.563 514.388C427.696 515.721 425.83 517.055 423.963 518.388L458.837 567.212C460.704 565.879 462.57 564.545 464.437 563.212L429.563 514.388ZM425.965 517.075C417.516 522.145 411.769 524.788 408.313 525.939L427.287 582.861C436.631 579.746 446.618 574.655 456.835 568.525L425.965 517.075ZM408.545 525.863C401.923 528.011 395.18 528.99 388.169 528.81L386.631 588.79C400.42 589.144 413.944 587.189 427.055 582.937L408.545 525.863ZM388.85 528.835C375.205 528.175 365.695 525.606 359.216 522.367L332.384 576.033C348.305 583.994 366.528 587.825 385.95 588.765L388.85 528.835ZM358.111 521.842C356.684 521.2 353.979 519.58 350.09 515.876L308.71 559.324C316.021 566.286 324.249 572.4 333.489 576.558L358.111 521.842ZM350.613 516.387L347.013 512.787L304.587 555.213L308.187 558.813L350.613 516.387ZM325.8 504C318.24 504 312.816 506.94 312.167 507.27C310.416 508.16 309.128 509.034 308.542 509.443C307.294 510.314 306.362 511.106 306.008 511.41C305.167 512.13 304.451 512.816 304.062 513.192C303.178 514.048 302.158 515.087 301.13 516.149C299.009 518.344 296.031 521.499 292.268 525.53L336.132 566.47C339.836 562.501 342.525 559.656 344.27 557.851C345.176 556.913 345.639 556.452 345.788 556.308C345.916 556.184 345.604 556.495 345.055 556.965C344.846 557.144 344.032 557.842 342.873 558.651C342.332 559.028 341.082 559.879 339.362 560.753C338.485 561.199 337.043 561.88 335.178 562.495C333.505 563.046 330.153 564 325.8 564V504ZM292.987 524.787L280.587 537.187L323.013 579.613L335.413 567.213L292.987 524.787ZM298.815 528.549L294.815 528.949L300.785 588.651L304.785 588.251L298.815 528.549ZM297.8 528.8H297.4V588.8H297.8V528.8ZM297.4 528.8C298.017 528.8 299.953 528.837 302.594 529.557C305.229 530.276 309.866 532.04 314.213 536.387L271.787 578.813C281.484 588.51 293.605 588.8 297.4 588.8V528.8ZM314.213 536.387C314.837 537.011 316.334 538.58 317.825 541.065C319.22 543.39 321.8 548.49 321.8 555.6H261.8C261.8 563.243 264.58 568.943 266.375 571.935C268.266 575.087 270.363 577.389 271.787 578.813L314.213 536.387ZM321.8 555.6C321.8 557.799 321.54 559.527 321.525 559.634C321.454 560.152 321.385 560.546 321.356 560.706C321.321 560.901 321.293 561.045 321.28 561.112C321.265 561.186 321.256 561.232 321.254 561.24C321.251 561.254 321.261 561.207 321.29 561.078C321.317 560.955 321.354 560.788 321.404 560.572C321.609 559.679 321.941 558.274 322.417 556.294C323.363 552.365 324.796 546.508 326.726 538.689C330.582 523.067 336.373 499.802 344.104 468.876L285.896 454.324C278.161 485.264 272.352 508.6 268.474 524.311C266.537 532.159 265.07 538.152 264.083 542.256C263.592 544.293 263.2 545.95 262.921 547.165C262.786 547.752 262.646 548.377 262.527 548.944C262.473 549.206 262.381 549.653 262.289 550.165C262.246 550.41 262.165 550.873 262.086 551.446C262.064 551.608 261.8 553.376 261.8 555.6H321.8ZM343.461 471.087C340.711 479.337 335.133 483.937 331.746 486.039C328.496 488.056 325.772 488.763 324.901 488.972C323.15 489.392 322.753 489.2 325 489.2V429.2C321.113 429.2 315.984 429.408 310.899 430.628C308.361 431.237 304.32 432.444 300.104 435.061C295.751 437.763 289.556 443.063 286.54 452.113L343.461 471.087ZM325 489.2H332.2V429.2H325V489.2ZM310.987 480.413L312.187 481.613L354.613 439.187L353.413 437.987L310.987 480.413ZM312.187 481.613C308.037 477.464 306.194 473.061 305.373 470.417C304.545 467.75 304.379 465.667 304.334 464.727C304.249 462.947 304.483 462.306 304.256 463.586L363.344 474.014C363.917 470.761 364.484 466.453 364.266 461.873C364.115 458.697 363.397 447.971 354.613 439.187L312.187 481.613ZM303.8 468.8C303.8 466.639 304.062 464.921 304.283 463.816C304.51 462.682 304.769 461.826 304.94 461.313L361.86 480.287C362.626 477.989 363.8 473.871 363.8 468.8H303.8ZM303.923 465.223C301.65 477.235 300.823 489.684 303.183 501.483L362.017 489.717C361.711 488.183 361.416 484.099 362.877 476.377L303.923 465.223ZM303.218 501.658C307.259 521.255 317.369 538.171 334.198 549.848C350.271 561.001 369.869 565.576 390.22 566.377L392.58 506.423C379.064 505.891 371.929 502.999 368.402 500.552C365.631 498.629 363.275 495.811 361.982 489.542L303.218 501.658ZM391.4 566.4C400.451 566.4 409.73 565.38 418.487 562.46L399.513 505.539C398.67 505.82 396.216 506.4 391.4 506.4V566.4ZM418.18 562.561C441.498 555.066 459.003 538.939 471.101 517.59L418.899 488.01C412.863 498.661 406.369 503.334 399.82 505.439L418.18 562.561ZM470.626 518.398C476.077 509.442 479.959 499.774 482.017 489.483L423.183 477.717C422.574 480.759 421.389 483.891 419.374 487.202L470.626 518.398ZM482.017 489.483C486.461 467.266 483.7 444.166 467.733 425.624L422.267 464.776C422.833 465.434 425.139 467.934 423.183 477.717L482.017 489.483ZM466.213 423.987C460.361 418.134 453.54 413.941 446.625 410.915L422.575 465.885C424.193 466.593 424.306 466.932 423.787 466.413L466.213 423.987ZM442.564 409.477L414.964 401.877L399.036 459.723L426.636 467.323L442.564 409.477ZM414.635 401.788C404.708 399.175 397.024 397.004 391.431 395.26C385.122 393.293 383.355 392.431 383.837 392.686L355.763 445.714C360.779 448.369 367.478 450.64 373.569 452.54C380.376 454.662 389.025 457.091 399.365 459.812L414.635 401.788ZM384.725 393.176C376.47 388.442 371.853 381.901 371.381 368.542L311.419 370.658C312.547 402.632 326.863 429.158 354.875 445.224L384.725 393.176ZM371.354 367.936C371.058 362.609 371.826 356.605 374.185 349.711L317.415 330.289C312.84 343.662 310.675 357.391 311.446 371.264L371.354 367.936ZM374.291 349.396C380.127 331.698 391.236 317.96 409.208 307.576L379.192 255.624C349.164 272.973 328.006 298.169 317.309 330.604L374.291 349.396ZM409.316 307.513C411.665 306.143 414.147 304.85 416.772 303.639L391.628 249.161C387.319 251.15 383.135 253.323 379.084 255.687L409.316 307.513ZM416.974 303.545C423.823 300.321 428.922 299.01 432.487 298.641L426.313 238.959C414.411 240.19 402.71 243.945 391.426 249.255L416.974 303.545ZM436.676 297.904C435.307 298.247 434.34 298.347 434.016 298.377C433.646 298.41 433.547 298.4 433.8 298.4V238.4C430.929 238.4 426.653 238.563 422.124 239.696L436.676 297.904Z" fill="#0057FF"/>
<path d="M1285.64 322.134C1283.94 304.946 1276.63 291.594 1263.7 282.077C1250.77 272.56 1233.23 267.801 1211.07 267.801C1196.01 267.801 1183.3 269.932 1172.93 274.193C1162.56 278.312 1154.61 284.065 1149.07 291.452C1143.67 298.838 1140.97 307.219 1140.97 316.594C1140.69 324.406 1142.32 331.224 1145.87 337.048C1149.57 342.872 1154.61 347.915 1161 352.176C1167.39 356.295 1174.78 359.918 1183.16 363.043C1191.54 366.026 1200.49 368.582 1210.01 370.713L1249.21 380.088C1268.24 384.349 1285.72 390.031 1301.62 397.134C1317.53 404.236 1331.31 412.972 1342.96 423.341C1354.61 433.71 1363.63 445.926 1370.02 459.989C1376.55 474.051 1379.89 490.173 1380.03 508.355C1379.89 535.06 1373.07 558.213 1359.58 577.815C1346.23 597.276 1326.91 612.403 1301.62 623.199C1276.48 633.852 1246.16 639.179 1210.64 639.179C1175.42 639.179 1144.74 633.781 1118.6 622.986C1092.61 612.19 1072.29 596.21 1057.66 575.045C1043.17 553.739 1035.57 527.389 1034.86 495.997H1124.14C1125.13 510.628 1129.32 522.844 1136.71 532.645C1144.24 542.304 1154.25 549.619 1166.75 554.591C1179.39 559.42 1193.67 561.835 1209.58 561.835C1225.2 561.835 1238.77 559.562 1250.28 555.017C1261.92 550.472 1270.94 544.151 1277.34 536.054C1283.73 527.957 1286.92 518.653 1286.92 508.142C1286.92 498.341 1284.01 490.102 1278.19 483.426C1272.51 476.75 1264.13 471.068 1253.05 466.381C1242.11 461.693 1228.68 457.432 1212.78 453.597L1165.26 441.665C1128.47 432.716 1099.42 418.724 1078.12 399.69C1056.81 380.656 1046.23 355.017 1046.37 322.773C1046.23 296.352 1053.26 273.27 1067.46 253.526C1081.81 233.781 1101.48 218.369 1126.48 207.29C1151.48 196.21 1179.89 190.67 1211.71 190.67C1244.1 190.67 1272.36 196.21 1296.51 207.29C1320.8 218.369 1339.69 233.781 1353.19 253.526C1366.68 273.27 1373.64 296.139 1374.07 322.134H1285.64ZM1588.25 639.392C1555.16 639.392 1526.54 632.361 1502.39 618.298C1478.38 604.094 1459.85 584.349 1446.78 559.065C1433.71 533.639 1427.18 504.165 1427.18 470.642C1427.18 436.835 1433.71 407.29 1446.78 382.006C1459.85 356.58 1478.38 336.835 1502.39 322.773C1526.54 308.568 1555.16 301.466 1588.25 301.466C1621.35 301.466 1649.9 308.568 1673.91 322.773C1698.06 336.835 1716.66 356.58 1729.73 382.006C1742.8 407.29 1749.33 436.835 1749.33 470.642C1749.33 504.165 1742.8 533.639 1729.73 559.065C1716.66 584.349 1698.06 604.094 1673.91 618.298C1649.9 632.361 1621.35 639.392 1588.25 639.392ZM1588.68 569.08C1603.74 569.08 1616.31 564.818 1626.39 556.295C1636.48 547.631 1644.08 535.841 1649.19 520.926C1654.45 506.011 1657.08 489.037 1657.08 470.003C1657.08 450.969 1654.45 433.994 1649.19 419.08C1644.08 404.165 1636.48 392.375 1626.39 383.71C1616.31 375.045 1603.74 370.713 1588.68 370.713C1573.48 370.713 1560.7 375.045 1550.33 383.71C1540.1 392.375 1532.36 404.165 1527.1 419.08C1521.99 433.994 1519.43 450.969 1519.43 470.003C1519.43 489.037 1521.99 506.011 1527.1 520.926C1532.36 535.841 1540.1 547.631 1550.33 556.295C1560.7 564.818 1573.48 569.08 1588.68 569.08ZM1899.12 196.636V633H1808.35V196.636H1899.12ZM2027.87 755.727C2016.36 755.727 2005.57 754.804 1995.48 752.957C1985.54 751.253 1977.3 749.051 1970.77 746.352L1991.22 678.597C2001.87 681.864 2011.46 683.639 2019.98 683.923C2028.65 684.207 2036.11 682.219 2042.36 677.957C2048.75 673.696 2053.93 666.452 2057.91 656.224L2063.24 642.375L1945.84 305.727H2041.29L2109.05 546.068H2112.46L2180.85 305.727H2276.94L2149.74 668.369C2143.63 685.983 2135.33 701.324 2124.81 714.392C2114.44 727.602 2101.31 737.759 2085.4 744.861C2069.49 752.105 2050.31 755.727 2027.87 755.727ZM2595.69 399.051L2512.6 404.165C2511.18 397.062 2508.12 390.67 2503.44 384.989C2498.75 379.165 2492.57 374.548 2484.9 371.139C2477.37 367.588 2468.35 365.812 2457.84 365.812C2443.78 365.812 2431.92 368.795 2422.26 374.761C2412.6 380.585 2407.77 388.398 2407.77 398.199C2407.77 406.011 2410.89 412.616 2417.14 418.014C2423.39 423.412 2434.12 427.744 2449.32 431.011L2508.55 442.943C2540.37 449.477 2564.09 459.989 2579.71 474.477C2595.34 488.966 2603.15 508 2603.15 531.58C2603.15 553.028 2596.83 571.849 2584.19 588.043C2571.69 604.236 2554.5 616.878 2532.63 625.969C2510.89 634.918 2485.82 639.392 2457.41 639.392C2414.09 639.392 2379.57 630.372 2353.86 612.332C2328.29 594.151 2313.31 569.435 2308.9 538.185L2398.18 533.497C2400.88 546.707 2407.41 556.793 2417.78 563.753C2428.15 570.571 2441.43 573.98 2457.63 573.98C2473.54 573.98 2486.32 570.926 2495.98 564.818C2505.78 558.568 2510.75 550.543 2510.89 540.741C2510.75 532.503 2507.27 525.756 2500.45 520.5C2493.63 515.102 2483.12 510.983 2468.92 508.142L2412.24 496.849C2380.28 490.457 2356.49 479.378 2340.87 463.611C2325.38 447.844 2317.64 427.744 2317.64 403.312C2317.64 382.29 2323.32 364.179 2334.69 348.98C2346.19 333.781 2362.31 322.062 2383.05 313.824C2403.93 305.585 2428.37 301.466 2456.35 301.466C2497.68 301.466 2530.21 310.202 2553.93 327.673C2577.8 345.145 2591.72 368.937 2595.69 399.051ZM2800.88 633V196.636H2893.14V556.935H3080.21V633H2800.88ZM3232.93 639.179C3212.05 639.179 3193.44 635.557 3177.1 628.312C3160.77 620.926 3147.84 610.06 3138.33 595.713C3128.95 581.224 3124.26 563.185 3124.26 541.594C3124.26 523.412 3127.6 508.142 3134.28 495.784C3140.95 483.426 3150.04 473.483 3161.55 465.955C3173.06 458.426 3186.12 452.744 3200.75 448.909C3215.53 445.074 3231.01 442.375 3247.2 440.812C3266.24 438.824 3281.58 436.977 3293.23 435.273C3304.87 433.426 3313.33 430.727 3318.58 427.176C3323.84 423.625 3326.47 418.369 3326.47 411.409V410.131C3326.47 396.636 3322.2 386.196 3313.68 378.81C3305.3 371.423 3293.37 367.73 3277.89 367.73C3261.55 367.73 3248.55 371.352 3238.89 378.597C3229.24 385.699 3222.84 394.648 3219.72 405.443L3135.77 398.625C3140.03 378.739 3148.41 361.551 3160.91 347.062C3173.41 332.432 3189.53 321.21 3209.28 313.398C3229.16 305.443 3252.18 301.466 3278.31 301.466C3296.49 301.466 3313.89 303.597 3330.51 307.858C3347.27 312.119 3362.12 318.724 3375.04 327.673C3388.11 336.622 3398.41 348.128 3405.94 362.19C3413.47 376.111 3417.23 392.801 3417.23 412.261V633H3331.15V587.616H3328.6C3323.34 597.844 3316.31 606.864 3307.5 614.676C3298.7 622.347 3288.11 628.384 3275.75 632.787C3263.4 637.048 3249.12 639.179 3232.93 639.179ZM3258.92 576.537C3272.27 576.537 3284.06 573.909 3294.29 568.653C3304.52 563.256 3312.54 556.011 3318.37 546.92C3324.19 537.83 3327.1 527.531 3327.1 516.026V481.295C3324.26 483.142 3320.36 484.847 3315.39 486.409C3310.56 487.83 3305.09 489.179 3298.98 490.457C3292.87 491.594 3286.76 492.659 3280.66 493.653C3274.55 494.506 3269.01 495.287 3264.04 495.997C3253.38 497.56 3244.08 500.045 3236.12 503.455C3228.17 506.864 3221.99 511.48 3217.59 517.304C3213.18 522.986 3210.98 530.088 3210.98 538.611C3210.98 550.969 3215.46 560.415 3224.41 566.949C3233.5 573.341 3245 576.537 3258.92 576.537ZM3489.36 633V196.636H3580.12V360.699H3582.89C3586.87 351.892 3592.62 342.943 3600.15 333.852C3607.82 324.619 3617.76 316.949 3629.98 310.841C3642.34 304.591 3657.68 301.466 3676 301.466C3699.87 301.466 3721.88 307.716 3742.05 320.216C3762.23 332.574 3778.35 351.253 3790.42 376.253C3802.5 401.111 3808.53 432.29 3808.53 469.79C3808.53 506.295 3802.64 537.119 3790.85 562.261C3779.2 587.261 3763.29 606.224 3743.12 619.151C3723.09 631.935 3700.65 638.327 3675.79 638.327C3658.18 638.327 3643.19 635.415 3630.83 629.591C3618.62 623.767 3608.6 616.452 3600.79 607.645C3592.98 598.696 3587.01 589.676 3582.89 580.585H3578.84V633H3489.36ZM3578.21 469.364C3578.21 488.824 3580.9 505.798 3586.3 520.287C3591.7 534.776 3599.51 546.068 3609.74 554.165C3619.97 562.119 3632.4 566.097 3647.03 566.097C3661.8 566.097 3674.3 562.048 3684.53 553.952C3694.75 545.713 3702.5 534.349 3707.75 519.861C3713.15 505.23 3715.85 488.398 3715.85 469.364C3715.85 450.472 3713.22 433.852 3707.96 419.506C3702.71 405.159 3694.97 393.937 3684.74 385.841C3674.51 377.744 3661.94 373.696 3647.03 373.696C3632.25 373.696 3619.75 377.602 3609.53 385.415C3599.44 393.227 3591.7 404.307 3586.3 418.653C3580.9 433 3578.21 449.903 3578.21 469.364ZM4141.4 399.051L4058.3 404.165C4056.88 397.062 4053.83 390.67 4049.14 384.989C4044.45 379.165 4038.27 374.548 4030.6 371.139C4023.07 367.588 4014.05 365.812 4003.54 365.812C3989.48 365.812 3977.62 368.795 3967.96 374.761C3958.3 380.585 3953.47 388.398 3953.47 398.199C3953.47 406.011 3956.6 412.616 3962.85 418.014C3969.1 423.412 3979.82 427.744 3995.02 431.011L4054.25 442.943C4086.07 449.477 4109.79 459.989 4125.42 474.477C4141.04 488.966 4148.86 508 4148.86 531.58C4148.86 553.028 4142.53 571.849 4129.89 588.043C4117.39 604.236 4100.2 616.878 4078.33 625.969C4056.6 634.918 4031.53 639.392 4003.12 639.392C3959.79 639.392 3925.28 630.372 3899.57 612.332C3874 594.151 3859.01 569.435 3854.61 538.185L3943.88 533.497C3946.58 546.707 3953.12 556.793 3963.49 563.753C3973.86 570.571 3987.14 573.98 4003.33 573.98C4019.24 573.98 4032.02 570.926 4041.68 564.818C4051.48 558.568 4056.45 550.543 4056.6 540.741C4056.45 532.503 4052.97 525.756 4046.16 520.5C4039.34 515.102 4028.83 510.983 4014.62 508.142L3957.95 496.849C3925.99 490.457 3902.19 479.378 3886.57 463.611C3871.09 447.844 3863.34 427.744 3863.34 403.312C3863.34 382.29 3869.03 364.179 3880.39 348.98C3891.89 333.781 3908.02 322.062 3928.76 313.824C3949.64 305.585 3974.07 301.466 4002.05 301.466C4043.39 301.466 4075.91 310.202 4099.64 327.673C4123.5 345.145 4137.42 368.937 4141.4 399.051Z" fill="white"/>
</svg>
